<svg width="22" height="18" viewBox="0 0 22 18" fill="none" xmlns="http://www.w3.org/2000/svg">
<path d="M11.7187 17.0938V12.4062H14.8437L10.9375 7.71875L7.03125 12.4062H10.1562V17.0938H6.25V17.0547C6.11875 17.0625 5.99375 17.0938 5.85937 17.0938C4.30537 17.0938 2.81502 16.4764 1.71617 15.3776C0.617325 14.2787 0 12.7884 0 11.2344C0 8.22812 2.27344 5.77813 5.19062 5.44219C5.44639 4.10515 6.16007 2.89901 7.20892 2.03125C8.25776 1.16348 9.57621 0.688325 10.9375 0.6875C12.299 0.688262 13.6176 1.16336 14.6667 2.03111C15.7159 2.89885 16.4298 4.10502 16.6859 5.44219C19.6031 5.77813 21.8734 8.22812 21.8734 11.2344C21.8734 12.7884 21.2561 14.2787 20.1573 15.3776C19.0584 16.4764 17.5681 17.0938 16.0141 17.0938C15.8828 17.0938 15.7562 17.0625 15.6234 17.0547V17.0938H11.7187Z" fill="#0BCE5A"/>
</svg>
