<svg width="31" height="31" viewBox="0 0 31 31" fill="none" xmlns="http://www.w3.org/2000/svg">
<path d="M15.5 0.1875C11.454 0.236313 7.58754 1.86526 4.7264 4.7264C1.86526 7.58754 0.236313 11.454 0.1875 15.5C0.236313 19.546 1.86526 23.4125 4.7264 26.2736C7.58754 29.1347 11.454 30.7637 15.5 30.8125C19.546 30.7637 23.4125 29.1347 26.2736 26.2736C29.1347 23.4125 30.7637 19.546 30.8125 15.5C30.7637 11.454 29.1347 7.58754 26.2736 4.7264C23.4125 1.86526 19.546 0.236313 15.5 0.1875ZM24.25 16.5938H16.5938V24.25H14.4062V16.5938H6.75V14.4062H14.4062V6.75H16.5938V14.4062H24.25V16.5938Z" fill="white"/>
</svg>
