<svg width="11" height="17" viewBox="0 0 11 17" fill="none" xmlns="http://www.w3.org/2000/svg">
<path d="M2.36089 16.5L10.6387 8.50003L2.36089 0.500035C2.13527 0.282704 1.83256 0.163902 1.51935 0.169763C1.20614 0.175623 0.908085 0.305666 0.690755 0.531285C0.473425 0.756903 0.354622 1.05961 0.360482 1.37283C0.366343 1.68604 0.496387 1.98409 0.722005 2.20142L7.24284 8.50003L0.722005 14.8056C0.496387 15.0229 0.366343 15.321 0.360482 15.6342C0.354622 15.9474 0.473425 16.2501 0.690755 16.4757C0.908085 16.7013 1.20614 16.8314 1.51935 16.8373C1.83256 16.8431 2.13527 16.7243 2.36089 16.507V16.5Z" fill="white"/>
</svg>
