<svg width="53" height="52" viewBox="0 0 53 52" fill="none" xmlns="http://www.w3.org/2000/svg">
<g clip-path="url(#clip0_110_127)" filter="url(#filter0_d_110_127)">
<g filter="url(#filter1_d_110_127)">
<path fill-rule="evenodd" clip-rule="evenodd" d="M4.875 25.5C4.875 36.8906 14.1094 46.125 25.5 46.125C36.8906 46.125 46.125 36.8906 46.125 25.5C46.125 14.1094 36.8906 4.875 25.5 4.875C14.1094 4.875 4.875 14.1094 4.875 25.5ZM21.3619 31.6744C21.0203 32.028 20.8313 32.5016 20.8356 32.9933C20.8399 33.4849 21.0371 33.9551 21.3847 34.3028C21.7324 34.6504 22.2026 34.8476 22.6942 34.8519C23.1859 34.8562 23.6595 34.6672 24.0131 34.3256L31.5131 26.8256C31.8646 26.474 32.0621 25.9972 32.0621 25.5C32.0621 25.0028 31.8646 24.526 31.5131 24.1744L24.0131 16.6744C23.6595 16.3328 23.1859 16.1438 22.6942 16.1481C22.2026 16.1524 21.7324 16.3496 21.3847 16.6972C21.0371 17.0449 20.8399 17.5151 20.8356 18.0067C20.8313 18.4984 21.0203 18.972 21.3619 19.3256L27.5363 25.5L21.3619 31.6744Z" fill="#1473E7"/>
</g>
</g>
<defs>
<filter id="filter0_d_110_127" x="-1" y="-1.5" width="55" height="55" filterUnits="userSpaceOnUse" color-interpolation-filters="sRGB">
<feFlood flood-opacity="0" result="BackgroundImageFix"/>
<feColorMatrix in="SourceAlpha" type="matrix" values="0 0 0 0 0 0 0 0 0 0 0 0 0 0 0 0 0 0 127 0" result="hardAlpha"/>
<feOffset dx="1" dy="0.5"/>
<feGaussianBlur stdDeviation="2.5"/>
<feComposite in2="hardAlpha" operator="out"/>
<feColorMatrix type="matrix" values="0 0 0 0 0 0 0 0 0 0 0 0 0 0 0 0 0 0 0.15 0"/>
<feBlend mode="normal" in2="BackgroundImageFix" result="effect1_dropShadow_110_127"/>
<feBlend mode="normal" in="SourceGraphic" in2="effect1_dropShadow_110_127" result="shape"/>
</filter>
<filter id="filter1_d_110_127" x="0.875" y="1.375" width="49.25" height="49.25" filterUnits="userSpaceOnUse" color-interpolation-filters="sRGB">
<feFlood flood-opacity="0" result="BackgroundImageFix"/>
<feColorMatrix in="SourceAlpha" type="matrix" values="0 0 0 0 0 0 0 0 0 0 0 0 0 0 0 0 0 0 127 0" result="hardAlpha"/>
<feOffset dy="0.5"/>
<feGaussianBlur stdDeviation="2"/>
<feComposite in2="hardAlpha" operator="out"/>
<feColorMatrix type="matrix" values="0 0 0 0 0 0 0 0 0 0 0 0 0 0 0 0 0 0 0.15 0"/>
<feBlend mode="normal" in2="BackgroundImageFix" result="effect1_dropShadow_110_127"/>
<feBlend mode="normal" in="SourceGraphic" in2="effect1_dropShadow_110_127" result="shape"/>
</filter>
<clipPath id="clip0_110_127">
<rect width="45" height="45" fill="white" transform="translate(3 48) rotate(-90)"/>
</clipPath>
</defs>
</svg>
