<svg width="23" height="23" viewBox="0 0 23 23" fill="none" xmlns="http://www.w3.org/2000/svg">
<path d="M11.5 0.5625C5.45996 0.5625 0.5625 5.45996 0.5625 11.5C0.5625 17.54 5.45996 22.4375 11.5 22.4375C17.54 22.4375 22.4375 17.54 22.4375 11.5C22.4375 5.45996 17.54 0.5625 11.5 0.5625ZM15.5381 15.6553L13.9268 15.6479L11.5 12.7549L9.07568 15.6455L7.46191 15.6528C7.35449 15.6528 7.2666 15.5674 7.2666 15.4575C7.2666 15.4111 7.28369 15.3672 7.31299 15.3306L10.4893 11.5464L7.31299 7.76465C7.28349 7.72887 7.26712 7.68407 7.2666 7.6377C7.2666 7.53027 7.35449 7.44238 7.46191 7.44238L9.07568 7.44971L11.5 10.3428L13.9243 7.45215L15.5356 7.44482C15.6431 7.44482 15.731 7.53027 15.731 7.64014C15.731 7.68652 15.7139 7.73047 15.6846 7.76709L12.5132 11.5488L15.687 15.333C15.7163 15.3696 15.7334 15.4136 15.7334 15.46C15.7334 15.5674 15.6455 15.6553 15.5381 15.6553Z" fill="white"/>
</svg>
