<svg width="35" height="35" viewBox="0 0 35 35" fill="none" xmlns="http://www.w3.org/2000/svg">
<path d="M32.686 17.0431C29.4096 10.9861 23.6638 7.32083 17.3055 7.32083C10.9471 7.32083 5.19156 10.9861 1.94434 17.0431L1.67212 17.5L1.9249 17.9667C5.20129 24.0236 10.9471 27.6889 17.3055 27.6889C23.6638 27.6889 29.4193 24.0722 32.686 17.9667L32.9388 17.5L32.686 17.0431ZM17.3055 25.6958C11.8318 25.6958 6.80545 22.6431 3.88879 17.5C6.80545 12.3569 11.8318 9.30416 17.3055 9.30416C22.7791 9.30416 27.7471 12.3667 30.7124 17.5C27.7471 22.6431 22.7693 25.6958 17.3055 25.6958V25.6958Z" fill="#323232"/>
<path d="M17.5874 24.1986C21.2708 24.1986 24.2569 21.2126 24.2569 17.5292C24.2569 13.8457 21.2708 10.8597 17.5874 10.8597C13.904 10.8597 10.918 13.8457 10.918 17.5292C10.918 21.2126 13.904 24.1986 17.5874 24.1986Z" fill="#323232"/>
</svg>
