<svg width="33" height="33" viewBox="0 0 33 33" fill="none" xmlns="http://www.w3.org/2000/svg">
<path d="M11 14.795H10.2025C9.11424 14.7556 8.02946 14.9404 7.01553 15.3378C6.0016 15.7351 5.08015 16.3367 4.30838 17.105L4.08838 17.3616V24.9516H7.82838V20.6433L8.33255 20.075L8.56171 19.8091C9.75514 18.5831 11.2409 17.6809 12.8792 17.1875C12.059 16.5634 11.4121 15.7397 11 14.795Z" fill="#C4C4C4"/>
<path d="M28.7284 17.0774C27.9566 16.3091 27.0352 15.7076 26.0212 15.3102C25.0073 14.9128 23.9225 14.7281 22.8342 14.7674C22.5004 14.7683 22.1669 14.7867 21.835 14.8224C21.4153 15.7087 20.7861 16.4795 20.0017 17.0682C21.7507 17.5521 23.3351 18.5027 24.585 19.8182L24.8142 20.0749L25.3092 20.6432V24.9607H28.9209V17.3341L28.7284 17.0774Z" fill="#C4C4C4"/>
<path d="M10.175 13.0076H10.4592C10.3271 11.8739 10.5261 10.7262 11.0319 9.70306C11.5378 8.67994 12.329 7.8251 13.31 7.24173C12.9544 6.69847 12.4638 6.25687 11.8862 5.96018C11.3087 5.66349 10.664 5.52189 10.0153 5.54922C9.36654 5.57656 8.73603 5.77191 8.18549 6.11614C7.63495 6.46036 7.18324 6.94167 6.8746 7.51293C6.56596 8.08418 6.41097 8.7258 6.4248 9.37495C6.43864 10.0241 6.62082 10.6585 6.95352 11.2161C7.28622 11.7737 7.75803 12.2353 8.32274 12.5558C8.88745 12.8763 9.52571 13.0446 10.175 13.0442V13.0076Z" fill="#C4C4C4"/>
<path d="M22.3941 12.3201C22.4052 12.5307 22.4052 12.7419 22.3941 12.9526C22.57 12.9804 22.7477 12.9958 22.9258 12.9984H23.1C23.7464 12.9639 24.3729 12.7626 24.9185 12.4142C25.464 12.0657 25.9101 11.5819 26.2132 11.0099C26.5163 10.4378 26.6661 9.79709 26.648 9.14997C26.63 8.50286 26.4447 7.87145 26.1102 7.31721C25.7756 6.76297 25.3033 6.3048 24.7392 5.98729C24.175 5.66978 23.5383 5.50375 22.8909 5.50538C22.2435 5.50701 21.6076 5.67624 21.0451 5.99658C20.4825 6.31692 20.0125 6.77747 19.6808 7.33339C20.5104 7.87508 21.1927 8.61425 21.6662 9.48459C22.1398 10.3549 22.3899 11.3292 22.3941 12.3201Z" fill="#C4C4C4"/>
<path d="M16.3808 16.4267C18.6438 16.4267 20.4783 14.5922 20.4783 12.3292C20.4783 10.0662 18.6438 8.23169 16.3808 8.23169C14.1178 8.23169 12.2833 10.0662 12.2833 12.3292C12.2833 14.5922 14.1178 16.4267 16.3808 16.4267Z" fill="#C4C4C4"/>
<path d="M16.6008 18.6083C15.4037 18.56 14.2091 18.7543 13.0891 19.1797C11.969 19.605 10.9466 20.2525 10.0833 21.0833L9.85413 21.34V27.1425C9.8577 27.3315 9.89848 27.5179 9.97413 27.6912C10.0498 27.8644 10.1588 28.0211 10.295 28.1521C10.4312 28.2832 10.5919 28.3862 10.7679 28.4552C10.9439 28.5242 11.1318 28.5578 11.3208 28.5541H21.8533C22.0423 28.5578 22.2302 28.5242 22.4062 28.4552C22.5822 28.3862 22.7429 28.2832 22.8791 28.1521C23.0153 28.0211 23.1243 27.8644 23.2 27.6912C23.2756 27.5179 23.3164 27.3315 23.32 27.1425V21.3583L23.1 21.0833C22.2423 20.25 21.2234 19.6006 20.1058 19.175C18.9883 18.7494 17.7955 18.5566 16.6008 18.6083Z" fill="#C4C4C4"/>
</svg>
