<svg width="26" height="17" viewBox="0 0 26 17" fill="none" xmlns="http://www.w3.org/2000/svg">
<path d="M11.3822 1.03278L1.04177 12.8502C-0.178565 14.2451 0.813224 16.4271 2.66528 16.4271H23.3462C23.7607 16.4274 24.1665 16.3083 24.5151 16.084C24.8636 15.8596 25.1401 15.5396 25.3114 15.1621C25.4827 14.7847 25.5416 14.3659 25.481 13.9558C25.4204 13.5458 25.2429 13.1619 24.9698 12.8502L14.6293 1.03494C14.4269 0.803355 14.1773 0.617748 13.8973 0.490575C13.6173 0.363402 13.3133 0.297607 13.0058 0.297607C12.6982 0.297607 12.3942 0.363402 12.1142 0.490575C11.8342 0.617748 11.5846 0.803355 11.3822 1.03494V1.03278Z" fill="white"/>
</svg>
