<svg width="15" height="15" viewBox="0 0 15 15" fill="none" xmlns="http://www.w3.org/2000/svg">
<path d="M8.40747 0C4.86614 0 1.995 2.87065 1.995 6.41198C1.995 7.67025 2.35732 8.84401 2.98353 9.83435C2.97893 9.83635 2.97442 9.83816 2.96981 9.84024L0.179688 12.6299L2.54981 15L5.44041 12.1089C5.43955 12.1048 5.43839 12.1008 5.43749 12.0967C6.32542 12.5615 7.33579 12.8245 8.40748 12.8245C11.9488 12.8245 14.8195 9.95334 14.8195 6.412C14.8194 2.87065 11.9488 0 8.40747 0ZM8.40747 2.84846C10.3755 2.84846 11.9705 4.44395 11.9705 6.41198C11.9705 8.38 10.3755 9.97549 8.40747 9.97549C6.43945 9.97549 4.84395 8.38 4.84395 6.41198C4.84395 4.44395 6.43944 2.84846 8.40747 2.84846Z" fill="white"/>
</svg>
