<svg width="15" height="15" viewBox="0 0 15 15" fill="none" xmlns="http://www.w3.org/2000/svg">
<path d="M8.40796 0C4.86663 0 1.99548 2.87065 1.99548 6.41198C1.99548 7.67025 2.35781 8.84401 2.98402 9.83435C2.97942 9.83635 2.97491 9.83816 2.97029 9.84024L0.180176 12.6299L2.5503 15L5.4409 12.1089C5.44004 12.1048 5.43888 12.1008 5.43798 12.0967C6.32591 12.5615 7.33628 12.8245 8.40797 12.8245C11.9493 12.8245 14.8199 9.95334 14.8199 6.412C14.8199 2.87065 11.9493 0 8.40796 0ZM8.40796 2.84846C10.376 2.84846 11.971 4.44395 11.971 6.41198C11.971 8.38 10.376 9.97549 8.40796 9.97549C6.43994 9.97549 4.84444 8.38 4.84444 6.41198C4.84444 4.44395 6.43992 2.84846 8.40796 2.84846Z" fill="#333333"/>
</svg>
