<svg width="15" height="15" viewBox="0 0 15 15" fill="none" xmlns="http://www.w3.org/2000/svg">
<path d="M7.5 0.9375L1.875 2.8125V8.4375C1.875 11.5444 4.39307 14.0625 7.5 14.0625C10.6069 14.0625 13.125 11.5444 13.125 8.4375V2.8125L7.5 0.9375ZM12.0703 8.4375C12.0703 10.9614 10.0239 13.0078 7.5 13.0078C4.97607 13.0078 2.92969 10.9614 2.92969 8.4375V3.60352L7.5 1.99219L12.0703 3.60352V8.4375Z" fill="#A589F4"/>
<path d="M5.5431 6.95947C5.49422 6.91037 5.43613 6.87141 5.37215 6.84483C5.30818 6.81824 5.23958 6.80456 5.1703 6.80456C5.10102 6.80456 5.03242 6.81824 4.96844 6.84483C4.90447 6.87141 4.84637 6.91037 4.7975 6.95947C4.7484 7.00835 4.70943 7.06644 4.68285 7.13042C4.65626 7.1944 4.64258 7.263 4.64258 7.33228C4.64258 7.40156 4.65626 7.47015 4.68285 7.53413C4.70943 7.59811 4.7484 7.6562 4.7975 7.70508L6.693 9.60059L6.72376 9.63135C6.77 9.67767 6.82491 9.71442 6.88536 9.73949C6.94581 9.76456 7.01062 9.77747 7.07606 9.77747C7.1415 9.77747 7.20631 9.76456 7.26676 9.73949C7.32721 9.71442 7.38212 9.67767 7.42835 9.63135L10.7023 6.35742C10.7486 6.31119 10.7853 6.25628 10.8104 6.19583C10.8355 6.13537 10.8484 6.07057 10.8484 6.00513C10.8484 5.93968 10.8355 5.87488 10.8104 5.81443C10.7853 5.75398 10.7486 5.69907 10.7023 5.65283L10.6613 5.61182C10.615 5.5655 10.5601 5.52875 10.4997 5.50368C10.4392 5.4786 10.3744 5.4657 10.309 5.4657C10.2435 5.4657 10.1787 5.4786 10.1183 5.50368C10.0578 5.52875 10.0029 5.5655 9.95667 5.61182L7.07533 8.4917L5.5431 6.95947Z" fill="#A589F4"/>
</svg>
