<svg width="35" height="35" viewBox="0 0 35 35" fill="none" xmlns="http://www.w3.org/2000/svg">
<path d="M17.8598 10.8597C17.073 10.8606 16.2927 11.0022 15.5557 11.2778L24.1112 19.8333C24.3904 19.0872 24.5321 18.2966 24.5293 17.5C24.5216 15.7362 23.8155 14.0473 22.5656 12.8028C21.3156 11.5584 19.6236 10.8597 17.8598 10.8597Z" fill="#323232"/>
<path d="M33.3375 17.0431C30.0612 10.9861 24.3153 7.32083 17.957 7.32083C16.2258 7.3249 14.5062 7.60383 12.8625 8.14722L14.4278 9.72222C15.5807 9.42426 16.7662 9.27077 17.957 9.26528C23.4306 9.26528 28.4084 12.3181 31.3737 17.4611C30.2859 19.3692 28.8439 21.0521 27.125 22.4194L28.5056 23.8C30.4948 22.1952 32.1469 20.2127 33.3667 17.9667L33.6195 17.5L33.3375 17.0431Z" fill="#323232"/>
<path d="M4.7348 5.61945L9.07091 9.95556C6.33014 11.7203 4.09012 14.1612 2.56674 17.0431L2.31396 17.5L2.56674 17.9667C5.84313 24.0236 11.589 27.6889 17.9473 27.6889C20.429 27.6884 22.8786 27.1267 25.1126 26.0458L29.9737 30.9069L31.6751 29.4486L6.3973 4.17084L4.7348 5.61945ZM12.8042 13.6889C11.8947 14.9716 11.4683 16.5349 11.6007 18.1018C11.7331 19.6687 12.4157 21.1382 13.5277 22.2502C14.6396 23.3621 16.1091 24.0447 17.6761 24.1771C19.243 24.3095 20.8062 23.8832 22.089 22.9736L23.6445 24.5292C21.8438 25.2989 19.9057 25.6958 17.9473 25.6958C12.4737 25.6958 7.49591 22.6431 4.53063 17.5C5.95368 14.9802 8.00314 12.8705 10.4806 11.375L12.8042 13.6889Z" fill="#323232"/>
</svg>
