<svg width="69" height="50" viewBox="0 0 69 50" fill="none" xmlns="http://www.w3.org/2000/svg">
<g clip-path="url(#clip0_732_7)">
<path d="M45.4555 26.1364C45.4555 25.8049 45.349 25.5327 45.1359 25.3196L32.6359 12.8196C32.4229 12.6065 32.1506 12.5 31.8192 12.5C31.4877 12.5 31.2155 12.6065 31.0024 12.8196L18.5379 25.2841C18.3012 25.5682 18.1828 25.8523 18.1828 26.1364C18.1828 26.4678 18.2893 26.7401 18.5024 26.9531C18.7155 27.1662 18.9877 27.2727 19.3192 27.2727H27.2737V39.7727C27.2737 40.0805 27.3862 40.3468 27.6111 40.5717C27.836 40.7966 28.1023 40.9091 28.4101 40.9091H35.2283C35.536 40.9091 35.8024 40.7966 36.0273 40.5717C36.2522 40.3468 36.3646 40.0805 36.3646 39.7727V27.2727H44.3192C44.6269 27.2727 44.8933 27.1603 45.1182 26.9354C45.3431 26.7105 45.4555 26.4441 45.4555 26.1364ZM68.1828 36.3636C68.1828 40.1278 66.8511 43.3416 64.1878 46.005C61.5244 48.6683 58.3106 50 54.5464 50H15.9101C11.5303 50 7.78388 48.4434 4.67072 45.3303C1.55756 42.2171 0.000976562 38.4706 0.000976562 34.0909C0.000976562 31.0133 0.829575 28.1723 2.48677 25.5682C4.14397 22.964 6.36935 21.0109 9.16291 19.7088C9.11556 18.9986 9.09189 18.4896 9.09189 18.1818C9.09189 13.1629 10.8675 8.87784 14.4186 5.3267C17.9697 1.77557 22.2548 0 27.2737 0C30.9669 0 34.3464 1.02983 37.4122 3.08949C40.478 5.14915 42.7093 7.88352 44.1061 11.2926C45.787 9.82481 47.7519 9.09091 50.001 9.09091C52.5105 9.09091 54.653 9.97869 56.4285 11.7543C58.2041 13.5298 59.0919 15.6723 59.0919 18.1818C59.0919 19.9811 58.6066 21.6146 57.6359 23.0824C60.7136 23.8163 63.2408 25.4202 65.2176 27.8942C67.1944 30.3681 68.1828 33.1913 68.1828 36.3636Z" fill="#0BCE5A"/>
</g>
<defs>
<clipPath id="clip0_732_7">
<rect width="68.1833" height="50" fill="white"/>
</clipPath>
</defs>
</svg>
