<svg width="43" height="43" viewBox="0 0 43 43" fill="none" xmlns="http://www.w3.org/2000/svg">
<path fill-rule="evenodd" clip-rule="evenodd" d="M0.875 21.5C0.875 32.8906 10.1094 42.125 21.5 42.125C32.8906 42.125 42.125 32.8906 42.125 21.5C42.125 10.1094 32.8906 0.875 21.5 0.875C10.1094 0.875 0.875 10.1094 0.875 21.5ZM17.3619 27.6744C17.0203 28.028 16.8313 28.5016 16.8356 28.9933C16.8399 29.4849 17.0371 29.9551 17.3847 30.3028C17.7324 30.6504 18.2026 30.8476 18.6942 30.8519C19.1859 30.8562 19.6595 30.6672 20.0131 30.3256L27.5131 22.8256C27.8646 22.474 28.0621 21.9972 28.0621 21.5C28.0621 21.0028 27.8646 20.526 27.5131 20.1744L20.0131 12.6744C19.6595 12.3328 19.1859 12.1438 18.6942 12.1481C18.2026 12.1524 17.7324 12.3496 17.3847 12.6972C17.0371 13.0449 16.8399 13.5151 16.8356 14.0067C16.8313 14.4984 17.0203 14.972 17.3619 15.3256L23.5363 21.5L17.3619 27.6744Z" fill="white"/>
</svg>
