<svg width="43" height="30" viewBox="0 0 43 30" fill="none" xmlns="http://www.w3.org/2000/svg">
<g clip-path="url(#clip0_726_2)">
<path d="M41.7258 4.67917C41.4811 3.77476 41.0037 2.95024 40.3412 2.28771C39.6787 1.62519 38.8542 1.14777 37.9498 0.903C34.6388 0 21.3132 0 21.3132 0C21.3132 0 7.98683 0.0273333 4.67583 0.930333C3.77141 1.17512 2.9469 1.65256 2.2844 2.31512C1.6219 2.97768 1.14453 3.80223 0.89983 4.70667C-0.10167 10.5897 -0.49017 19.554 0.92733 25.2017C1.17206 26.1061 1.64944 26.9306 2.31194 27.5931C2.97444 28.2556 3.79893 28.7331 4.70333 28.9778C8.01433 29.8808 21.3403 29.8808 21.3403 29.8808C21.3403 29.8808 34.6662 29.8808 37.977 28.9778C38.8814 28.7331 39.706 28.2557 40.3685 27.5932C41.031 26.9306 41.5084 26.1061 41.7532 25.2017C42.8095 19.3103 43.135 10.3517 41.7258 4.67933V4.67917Z" fill="#FF0000"/>
<path d="M17.0718 21.3434L28.1264 14.9404L17.0718 8.53735V21.3434Z" fill="white"/>
</g>
<defs>
<clipPath id="clip0_726_2">
<rect width="42.67" height="30" fill="white"/>
</clipPath>
</defs>
</svg>
