<svg width="45" height="45" viewBox="0 0 45 45" fill="none" xmlns="http://www.w3.org/2000/svg">
<path fill-rule="evenodd" clip-rule="evenodd" d="M23.4373 5.625H21.5623V9.53438C21.0776 9.7063 20.6492 10.0077 20.3236 10.4058C19.9981 10.8039 19.7877 11.2836 19.7154 11.7928L12.8811 13.6256C12.6696 13.6828 12.4849 13.8121 12.3589 13.9913L6.86981 21.7669H5.73731C5.73673 22.5215 5.8431 23.2724 6.05324 23.9972C6.94387 27.0497 9.61293 29.2659 12.7686 29.2659C16.0451 29.2659 18.7976 26.8753 19.5786 23.6409C19.7258 23.0281 19.8001 22.4 19.7998 21.7697V21.7669H18.9232L14.6107 15.1031L20.0876 13.6341C20.4246 14.1947 20.9459 14.6209 21.5623 14.8397V35.625H18.7498V37.5H13.1248V39.375H31.8748V37.5H26.2498V35.625H23.4373V14.8406C23.9787 14.649 24.4485 14.2963 24.7837 13.8299C25.1189 13.3636 25.3033 12.8058 25.3123 12.2316L30.1311 10.9397L26.6932 15.9375H25.3123C25.3123 16.5844 25.3892 17.2125 25.5336 17.8125C26.3145 21.0469 29.0679 23.4375 32.3436 23.4375C35.4982 23.4375 38.1682 21.2212 39.0589 18.1678C39.269 17.444 39.3754 16.694 39.3748 15.9403V15.9375H37.5504L33.1498 8.89687C33.0455 8.72075 32.8863 8.58362 32.6967 8.50643C32.5071 8.42924 32.2975 8.41622 32.0998 8.46938L24.7123 10.4512C24.3826 10.0313 23.9405 9.71369 23.4373 9.53531V5.625ZM28.9695 15.9375H35.3398L32.3061 11.0841L28.9695 15.9375ZM16.6901 21.7669L13.0911 16.2047L9.16481 21.7669H16.6901Z" fill="#D3D3D3"/>
</svg>
