<svg width="34" height="34" viewBox="0 0 34 34" fill="none" xmlns="http://www.w3.org/2000/svg">
<path d="M20.9668 6.53488L30.4599 22.3463C31.8242 24.6172 31.1541 27.605 28.9625 29.0188C28.2269 29.4951 27.3695 29.7489 26.4932 29.7498H7.50566C4.92591 29.7498 2.8335 27.5823 2.8335 24.9062C2.8335 24.001 3.07858 23.1155 3.539 22.3463L13.0335 6.53488C14.3963 4.26397 17.2778 3.56838 19.4694 4.98222C20.0757 5.37322 20.5886 5.90447 20.9668 6.53488ZM17.0002 24.0831C17.3759 24.0831 17.7362 23.9339 18.0019 23.6682C18.2676 23.4025 18.4168 23.0422 18.4168 22.6665C18.4168 22.2907 18.2676 21.9304 18.0019 21.6647C17.7362 21.3991 17.3759 21.2498 17.0002 21.2498C16.6244 21.2498 16.2641 21.3991 15.9984 21.6647C15.7328 21.9304 15.5835 22.2907 15.5835 22.6665C15.5835 23.0422 15.7328 23.4025 15.9984 23.6682C16.2641 23.9339 16.6244 24.0831 17.0002 24.0831ZM17.0002 11.3331C16.6244 11.3331 16.2641 11.4824 15.9984 11.7481C15.7328 12.0137 15.5835 12.3741 15.5835 12.7498V18.4165C15.5835 18.7922 15.7328 19.1525 15.9984 19.4182C16.2641 19.6839 16.6244 19.8331 17.0002 19.8331C17.3759 19.8331 17.7362 19.6839 18.0019 19.4182C18.2676 19.1525 18.4168 18.7922 18.4168 18.4165V12.7498C18.4168 12.3741 18.2676 12.0137 18.0019 11.7481C17.7362 11.4824 17.3759 11.3331 17.0002 11.3331Z" fill="#D3D3D3"/>
</svg>
