<svg width="34" height="34" viewBox="0 0 34 34" fill="none" xmlns="http://www.w3.org/2000/svg">
<path d="M12.6792 18.9833H9.32167C8.97947 17.6833 8.97947 16.3167 9.32167 15.0167H12.6792C12.5918 15.6743 12.5445 16.3366 12.5375 17C12.5445 17.6634 12.5918 18.3257 12.6792 18.9833ZM10.1433 13.0333H13.0333C13.3638 11.8096 13.8295 10.6265 14.4217 9.50583C12.6145 10.1231 11.0937 11.3769 10.1433 13.0333ZM23.8567 13.0333C22.8988 11.3777 21.3741 10.1247 19.5642 9.50583C20.1645 10.6212 20.626 11.8058 20.9383 13.0333H23.8567ZM17 24.8908C17.8418 23.6946 18.483 22.3692 18.8983 20.9667H15.1017C15.517 22.3692 16.1582 23.6946 17 24.8908ZM17 9.095C16.1575 10.2959 15.5163 11.6261 15.1017 13.0333H18.8983C18.4837 11.6261 17.8425 10.2959 17 9.095ZM10.1433 20.9667C11.0997 22.618 12.6183 23.8701 14.4217 24.4942C13.8295 23.3735 13.3638 22.1904 13.0333 20.9667H10.1433ZM29.75 7.08333V26.9167C29.75 27.6681 29.4515 28.3888 28.9201 28.9201C28.3888 29.4515 27.6681 29.75 26.9167 29.75H7.08333C6.33189 29.75 5.61122 29.4515 5.07986 28.9201C4.54851 28.3888 4.25 27.6681 4.25 26.9167V7.08333C4.25 6.33189 4.54851 5.61122 5.07986 5.07986C5.61122 4.54851 6.33189 4.25 7.08333 4.25H26.9167C27.6681 4.25 28.3888 4.54851 28.9201 5.07986C29.4515 5.61122 29.75 6.33189 29.75 7.08333ZM26.9167 17C26.9167 15.0387 26.3351 13.1214 25.2454 11.4906C24.1558 9.85981 22.607 8.58876 20.7949 7.83819C18.9829 7.08763 16.989 6.89124 15.0654 7.27388C13.1417 7.65652 11.3747 8.60099 9.98786 9.98786C8.60099 11.3747 7.65652 13.1417 7.27388 15.0654C6.89124 16.989 7.08763 18.9829 7.83819 20.7949C8.58876 22.607 9.85981 24.1558 11.4906 25.2454C13.1214 26.3351 15.0387 26.9167 17 26.9167C19.6301 26.9167 22.1524 25.8719 24.0121 24.0121C25.8719 22.1524 26.9167 19.6301 26.9167 17ZM21.4625 17C21.4555 17.6634 21.4082 18.3257 21.3208 18.9833H24.6783C25.0205 17.6833 25.0205 16.3167 24.6783 15.0167H21.3208C21.4082 15.6743 21.4555 16.3366 21.4625 17ZM19.5642 24.4942C21.3722 23.8719 22.8958 22.6198 23.8567 20.9667H20.9383C20.626 22.1942 20.1645 23.3788 19.5642 24.4942ZM14.6767 15.0167C14.4652 16.3304 14.4652 17.6696 14.6767 18.9833H19.3233C19.4203 18.3265 19.4724 17.6639 19.4792 17C19.4728 16.3361 19.4207 15.6734 19.3233 15.0167H14.6767Z" fill="#D3D3D3"/>
</svg>
