<svg width="23" height="30" viewBox="0 0 23 30" fill="none" xmlns="http://www.w3.org/2000/svg">
<g clip-path="url(#clip0_420_7)">
<path d="M21.7969 0H17.168C16.541 0 16.2305 0.755859 16.6699 1.20117L17.6602 2.19141L12.9316 6.91992C11.6309 6.09961 10.0898 5.625 8.4375 5.625C3.7793 5.625 0 9.4043 0 14.0625C0 18.0762 2.80664 21.4395 6.5625 22.2891V23.9062H4.45312C4.06641 23.9062 3.75 24.2227 3.75 24.6094V26.9531C3.75 27.3398 4.06641 27.6562 4.45312 27.6562H6.5625V29.2969C6.5625 29.6836 6.87891 30 7.26562 30H9.60938C9.99609 30 10.3125 29.6836 10.3125 29.2969V27.6562H12.4219C12.8086 27.6562 13.125 27.3398 13.125 26.9531V24.6094C13.125 24.2227 12.8086 23.9062 12.4219 23.9062H10.3125V22.2891C14.0684 21.4336 16.875 18.0762 16.875 14.0625C16.875 12.4102 16.4004 10.8691 15.5801 9.56836L20.3086 4.83984L21.2988 5.83008C21.7441 6.27539 22.5 5.95898 22.5 5.33203V0.703125C22.5 0.316406 22.1836 0 21.7969 0V0ZM8.4375 18.75C5.85352 18.75 3.75 16.6465 3.75 14.0625C3.75 11.4785 5.85352 9.375 8.4375 9.375C11.0215 9.375 13.125 11.4785 13.125 14.0625C13.125 16.6465 11.0215 18.75 8.4375 18.75Z" fill="#D3D3D3"/>
</g>
<defs>
<clipPath id="clip0_420_7">
<rect width="22.5" height="30" fill="white"/>
</clipPath>
</defs>
</svg>
