<svg width="45" height="45" viewBox="0 0 45 45" fill="none" xmlns="http://www.w3.org/2000/svg">
<path d="M27.6415 8.4375H38.8409C39.6225 8.43742 40.3956 8.60025 41.1108 8.9156C41.826 9.23095 42.4677 9.69191 42.9948 10.2691C43.5219 10.8462 43.923 11.5269 44.1724 12.2677C44.4218 13.0085 44.5141 13.7931 44.4434 14.5716L42.6518 34.2591C42.5248 35.6566 41.88 36.9563 40.8439 37.9028C39.8079 38.8494 38.4554 39.3744 37.0521 39.375H7.94555C6.54222 39.3744 5.18978 38.8494 4.15373 37.9028C3.11769 36.9563 2.47287 35.6566 2.34587 34.2591L0.554305 14.5716C0.434453 13.2688 0.774788 11.9651 1.51618 10.8872L1.40649 8.4375C1.40649 6.94566 1.99912 5.51492 3.05402 4.46002C4.10891 3.40513 5.53965 2.8125 7.03149 2.8125H17.359C18.8507 2.81282 20.2812 3.40566 21.3359 4.46062L23.6646 6.78938C24.7193 7.84434 26.1498 8.43718 27.6415 8.4375ZM4.23587 8.775C4.83774 8.55562 5.48462 8.4375 6.15962 8.4375H21.3359L19.3474 6.44906C18.8201 5.92158 18.1049 5.62516 17.359 5.625H7.03149C6.29474 5.62487 5.58735 5.91384 5.06141 6.42978C4.53547 6.94572 4.23299 7.64744 4.21899 8.38406L4.23587 8.775Z" fill="#D3D3D3"/>
</svg>
