<svg width="45" height="45" viewBox="0 0 45 45" fill="none" xmlns="http://www.w3.org/2000/svg">
<path d="M22.5 5.63062C21.7621 5.63062 21.0313 5.77596 20.3496 6.05836C19.6678 6.34076 19.0483 6.75468 18.5265 7.27649C18.0047 7.7983 17.5908 8.41777 17.3084 9.09955C17.026 9.78132 16.8806 10.512 16.8806 11.25C16.8806 11.9879 17.026 12.7187 17.3084 13.4004C17.5908 14.0822 18.0047 14.7017 18.5265 15.2235C19.0483 15.7453 19.6678 16.1592 20.3496 16.4416C21.0313 16.724 21.7621 16.8694 22.5 16.8694C23.9904 16.8694 25.4197 16.2773 26.4735 15.2235C27.5273 14.1697 28.1194 12.7403 28.1194 11.25C28.1194 9.75964 27.5273 8.33033 26.4735 7.27649C25.4197 6.22265 23.9904 5.63062 22.5 5.63062V5.63062ZM35.1562 8.43749C34.0374 8.43749 32.9643 8.88196 32.1731 9.67313C31.382 10.4643 30.9375 11.5374 30.9375 12.6562C30.9375 13.7751 31.382 14.8482 32.1731 15.6393C32.9643 16.4305 34.0374 16.875 35.1562 16.875C36.2751 16.875 37.3482 16.4305 38.1394 15.6393C38.9305 14.8482 39.375 13.7751 39.375 12.6562C39.375 11.5374 38.9305 10.4643 38.1394 9.67313C37.3482 8.88196 36.2751 8.43749 35.1562 8.43749V8.43749ZM9.84375 8.43749C8.72487 8.43749 7.65181 8.88196 6.86064 9.67313C6.06947 10.4643 5.625 11.5374 5.625 12.6562C5.625 13.7751 6.06947 14.8482 6.86064 15.6393C7.65181 16.4305 8.72487 16.875 9.84375 16.875C10.9626 16.875 12.0357 16.4305 12.8269 15.6393C13.618 14.8482 14.0625 13.7751 14.0625 12.6562C14.0625 11.5374 13.618 10.4643 12.8269 9.67313C12.0357 8.88196 10.9626 8.43749 9.84375 8.43749ZM14.0625 22.4803C14.0677 21.7378 14.3663 21.0275 14.8932 20.5043C15.4201 19.9811 16.1325 19.6875 16.875 19.6875H28.125C28.8709 19.6875 29.5863 19.9838 30.1137 20.5113C30.6412 21.0387 30.9375 21.7541 30.9375 22.5V30.9375C30.9373 31.8226 30.7988 32.7023 30.5269 33.5447C29.9041 35.4535 28.6212 37.0778 26.9086 38.126C25.196 39.1741 23.1659 39.5773 21.1827 39.2633C19.1995 38.9492 17.3933 37.9385 16.0883 36.4125C14.7833 34.8866 14.065 32.9454 14.0625 30.9375V22.4803ZM11.25 22.5C11.25 21.4734 11.5228 20.5144 12.0038 19.6875H5.625C4.87908 19.6875 4.16371 19.9838 3.63626 20.5113C3.10882 21.0387 2.8125 21.7541 2.8125 22.5V29.5312C2.81212 30.6824 3.09439 31.8161 3.63452 32.8327C4.17465 33.8492 4.95612 34.7177 5.91031 35.3617C6.86449 36.0056 7.9622 36.4055 9.10703 36.5261C10.2519 36.6467 11.4088 36.4844 12.4763 36.0534C11.6668 34.4688 11.2464 32.7141 11.25 30.9347V22.5ZM33.75 22.5V30.9375C33.75 32.7797 33.3084 34.5178 32.5238 36.0534C33.5912 36.4844 34.7481 36.6467 35.893 36.5261C37.0378 36.4055 38.1355 36.0056 39.0897 35.3617C40.0439 34.7177 40.8254 33.8492 41.3655 32.8327C41.9056 31.8161 42.1879 30.6824 42.1875 29.5312V22.5C42.1875 21.7541 41.8912 21.0387 41.3637 20.5113C40.8363 19.9838 40.1209 19.6875 39.375 19.6875H32.9963C33.4744 20.5144 33.75 21.4734 33.75 22.5Z" fill="#D3D3D3"/>
</svg>
