<svg width="30" height="33" viewBox="0 0 30 33" fill="none" xmlns="http://www.w3.org/2000/svg">
<path d="M29.5994 6.33476C29.4657 6.19227 29.302 6.07706 29.1184 5.99635C28.9348 5.91563 28.7354 5.87115 28.5326 5.86569C25.3816 5.78879 21.3945 2.64371 18.7584 1.40952C17.13 0.649523 16.055 0.148413 15.2477 0.0164065C15.0838 -0.00589029 14.9172 -0.00545842 14.7534 0.0176881C13.9461 0.149694 12.8711 0.650805 11.2441 1.4108C8.608 2.64371 4.62088 5.78879 1.46991 5.86569C1.26694 5.87144 1.06741 5.91604 0.883663 5.99672C0.69992 6.07741 0.535889 6.19247 0.401738 6.33476C0.123673 6.62842 -0.0197938 7.01223 0.00220219 7.40362C0.679078 20.2492 5.61492 28.1991 14.2756 32.8193C14.5008 32.9385 14.7507 33 14.9992 33C15.2477 33 15.4976 32.9385 15.7241 32.8193C24.3848 28.1991 29.3193 20.2492 29.9975 7.40362C30.0208 7.01229 29.8777 6.62819 29.5994 6.33476ZM22.7126 11.3869L15.4042 21.4539C15.142 21.8154 14.7301 22.055 14.3223 22.055C13.9132 22.055 13.4587 21.8461 13.1718 21.5783L8.02037 16.7684C7.85218 16.6108 7.75775 16.3974 7.75775 16.175C7.75775 15.9525 7.85218 15.7392 8.02037 15.5816L9.29311 14.391C9.46228 14.2346 9.69072 14.1469 9.9288 14.1469C10.1669 14.1469 10.3953 14.2346 10.5645 14.391L13.9145 17.5181L19.7346 9.49906C19.8692 9.31556 20.0762 9.18924 20.3103 9.1477C20.5444 9.10616 20.7866 9.15277 20.984 9.27734L22.4737 10.2206C22.6705 10.3461 22.8061 10.5392 22.8508 10.7577C22.8956 10.9763 22.8459 11.2025 22.7126 11.3869Z" fill="#C4C4C4"/>
</svg>
