<svg width="35" height="35" viewBox="0 0 35 35" fill="none" xmlns="http://www.w3.org/2000/svg">
<path d="M17.5 35C7.83504 35 0 27.1649 0 17.5C0 7.83504 7.83504 0 17.5 0C27.1649 0 35 7.83504 35 17.5C35 27.165 27.1649 35 17.5 35ZM17.5 3.80435C9.93507 3.80435 3.80435 9.93697 3.80435 17.5C3.80435 25.0631 9.93507 31.1956 17.5 31.1956C25.0649 31.1956 31.1956 25.0631 31.1956 17.5C31.1956 9.93697 25.0649 3.80435 17.5 3.80435ZM20.9239 24.8234H14.0761V17.0435H9.79621L17.5 9.79621L25.2038 17.0435H20.9239V24.8234Z" fill="white"/>
</svg>
